<svg width="18" height="18" viewBox="0 0 18 18" fill="none" xmlns="http://www.w3.org/2000/svg">
  <defs>
    <style>
      /* 路径绘制：绘制帽顶 */
      @keyframes drawCapTop {
        0% {
          stroke-dasharray: 50 50;
          stroke-dashoffset: -50;
        }
        75% {
          stroke-dasharray: 50 50;
          stroke-dashoffset: 0;
        }
        90% {
          stroke-dasharray: 50 50;
          stroke-dashoffset: -2;
        }
        100% {
          stroke-dasharray: 50 50;
          stroke-dashoffset: 0;
        }
      }

      /* 路径绘制：绘制帽底 */
      @keyframes drawCapBottom {
        0% {
          stroke-dasharray: 30 30;
          stroke-dashoffset: -30;
        }
        75% {
          stroke-dasharray: 30 30;
          stroke-dashoffset: 0;
        }
        90% {
          stroke-dasharray: 30 30;
          stroke-dashoffset: -1;
        }
        100% {
          stroke-dasharray: 30 30;
          stroke-dashoffset: 0;
        }
      }

      /* 路径绘制：绘制流苏 */
      @keyframes drawTassel {
        0% {
          stroke-dasharray: 10 10;
          stroke-dashoffset: -10;
        }
        75% {
          stroke-dasharray: 10 10;
          stroke-dashoffset: 0;
        }
        90% {
          stroke-dasharray: 10 10;
          stroke-dashoffset: -1;
        }
        100% {
          stroke-dasharray: 10 10;
          stroke-dashoffset: 0;
        }
      }

      /* 整体scale回弹 */
      @keyframes wholeScaleBounce {
        0% {
          transform: scale(1);
        }
        85% {
          transform: scale(1);
        }
        92% {
          transform: scale(1.04);
        }
        100% {
          transform: scale(1);
        }
      }

      .cap-top {
        stroke-dasharray: 50 50;
        stroke-dashoffset: -50;
        animation: drawCapTop 1.2s ease-in-out forwards;
      }

      .cap-bottom {
        stroke-dasharray: 30 30;
        stroke-dashoffset: -30;
        animation: drawCapBottom 1.2s ease-in-out 0.3s forwards;
      }

      .tassel {
        stroke-dasharray: 10 10;
        stroke-dashoffset: -10;
        animation: drawTassel 1.2s ease-in-out 0.6s forwards;
      }

      .grad-cap {
        transform-box: view-box;
        transform-origin: 9px 9px;
        animation: wholeScaleBounce 1.2s cubic-bezier(0.34, 1.56, 0.64, 1) forwards;
      }
    </style>
  </defs>
  <g class="grad-cap">
    <path class="cap-top" d="M16.0651 8.19177C16.1994 8.13254 16.3133 8.03522 16.3928 7.91187C16.4723 7.78852 16.5139 7.64456 16.5123 7.49782C16.5108 7.35108 16.4663 7.20801 16.3843 7.08633C16.3022 6.96465 16.1863 6.86971 16.0508 6.81327L9.62259 3.88527C9.42717 3.79613 9.21488 3.75 9.00009 3.75C8.7853 3.75 8.57301 3.79613 8.37759 3.88527L1.95009 6.81027C1.81657 6.86875 1.70298 6.96487 1.62322 7.08688C1.54346 7.20889 1.50098 7.3515 1.50098 7.49727C1.50098 7.64304 1.54346 7.78565 1.62322 7.90766C1.70298 8.02967 1.81657 8.12579 1.95009 8.18427L8.37759 11.1153C8.57301 11.2044 8.7853 11.2505 9.00009 11.2505C9.21488 11.2505 9.42717 11.2044 9.62259 11.1153L16.0651 8.19177Z" stroke="black" stroke-opacity="0.9" stroke-width="1.125" stroke-linecap="round" stroke-linejoin="round"/>
    <path class="cap-bottom" d="M4.5 9.375V12C4.5 12.5967 4.97411 13.169 5.81802 13.591C6.66193 14.0129 7.80653 14.25 9 14.25C10.1935 14.25 11.3381 14.0129 12.182 13.591C13.0259 13.169 13.5 12.5967 13.5 12V9.375" stroke="black" stroke-opacity="0.9" stroke-width="1.125" stroke-linecap="round" stroke-linejoin="round"/>
    <path class="tassel" d="M16.5002 7.5V12" stroke="black" stroke-opacity="0.9" stroke-width="1.125" stroke-linecap="round" stroke-linejoin="round"/>
  </g>
</svg>
