<svg width="18" height="18" viewBox="0 0 18 18" fill="none" xmlns="http://www.w3.org/2000/svg">
  <defs>
    <style>
      @keyframes growLeftBar {
        0% {
          transform: scaleY(0);
          transform-origin: 50% 12px;
        }
        70% {
          transform: scaleY(1.05);
          transform-origin: 50% 12px;
        }
        100% {
          transform: scaleY(1);
          transform-origin: 50% 12px;
        }
      }
      @keyframes growRightBar {
        0% {
          transform: scaleY(0);
          transform-origin: 50% 12px;
        }
        70% {
          transform: scaleY(1.05);
          transform-origin: 50% 12px;
        }
        100% {
          transform: scaleY(1);
          transform-origin: 50% 12px;
        }
      }
      .axis {
        opacity: 1;
      }
      .left-bar {
        transform: scaleY(0);
        transform-origin: 50% 12px;
        animation: growLeftBar 0.7s cubic-bezier(0.34, 1.56, 0.64, 1) 0.3s forwards;
      }
      .right-bar {
        transform: scaleY(0);
        transform-origin: 50% 12px;
        animation: growRightBar 0.7s cubic-bezier(0.34, 1.56, 0.64, 1) 0.6s forwards;
      }
    </style>
  </defs>
  <g>
    <!-- 坐标轴：直接呈现 -->
    <path class="axis" d="M2.25 2.25V14.25C2.25 14.6478 2.40804 15.0294 2.68934 15.3107C2.97064 15.592 3.35218 15.75 3.75 15.75H15.75" stroke="black" stroke-opacity="0.9" stroke-width="1.125" stroke-linecap="round" stroke-linejoin="round"/>
    <!-- 左柱子：向上偏移2px + 从下到上变长 + 回弹 -->
    <g class="left-bar">
      <path d="M7.5 6H6C5.58579 6 5.25 6.33579 5.25 6.75V12C5.25 12.4142 5.58579 12.75 6 12.75H7.5C7.91421 12.75 8.25 12.4142 8.25 12V6.75C8.25 6.33579 7.91421 6 7.5 6Z" stroke="black" stroke-opacity="0.9" stroke-width="1.125" stroke-linecap="round" stroke-linejoin="round"/>
    </g>
    <!-- 右柱子：向上偏移2px + 从下到上变长 + 回弹 -->
    <g class="right-bar">
      <path d="M13.5 3.75H12C11.5858 3.75 11.25 4.08579 11.25 4.5V12C11.25 12.4142 11.5858 12.75 12 12.75H13.5C13.9142 12.75 14.25 12.4142 14.25 12V4.5C14.25 4.08579 13.9142 3.75 13.5 3.75Z" stroke="black" stroke-opacity="0.9" stroke-width="1.125" stroke-linecap="round" stroke-linejoin="round"/>
    </g>
  </g>
</svg>
